# xmcd
#
# Track frame offsets: 
#        150
#        13543
#        31735
#        47450
#        102440
#        140886
#        172837
#        202159
#        257881
#        287788
#
# Disc length: 4044 seconds
#
# Revision: 2
# Processed by: cddbd v1.5.2PL0 Copyright (c) Steve Scherf et al.
# Submitted via: ExactAudioCopyFreeDBPlugin 1.0
#
DISCID=8c0fca0a
DTITLE=Various Artist - Best Of Blue Note 50 [CD 2 of 5)
DYEAR=2011
DGENRE=Jazz
TTITLE0=Chet Baker - I Get Along Without Very Well (Except Sometimes) 
TTITLE0=(Vocal)
TTITLE1=Miles Davis - It Never Entered My Mind
TTITLE2=Thelonious Monk - Nice Work If You Can Get It
TTITLE3=Charles Mingus - Nostalgia In Times Square
TTITLE4=Sonny Clark - News For Lulu
TTITLE5=Herbie Hancock - Watermelon Man
TTITLE6=Dexter Gordon - Hanky Panky
TTITLE7=McCoy Tyner - Message From The Nile
TTITLE8=Lou Donaldson - Blues Walk
TTITLE9=Lou Rawls - Strange Fruit
EXTD=YEAR: 2011
EXTT0=
EXTT1=
EXTT2=
EXTT3=
EXTT4=
EXTT5=
EXTT6=
EXTT7=
EXTT8=
EXTT9=
PLAYORDER=
